<?xml version="1.0" encoding="utf-8"?>
<!-- Generator: Adobe Illustrator 16.0.4, SVG Export Plug-In . SVG Version: 6.00 Build 0)  -->
<!DOCTYPE svg PUBLIC "-//W3C//DTD SVG 1.1//EN" "http://www.w3.org/Graphics/SVG/1.1/DTD/svg11.dtd">
<svg version="1.1" id="Layer_1" xmlns="http://www.w3.org/2000/svg" xmlns:xlink="http://www.w3.org/1999/xlink" x="0px" y="0px"
	 width="585.141px" height="246px" viewBox="10.14 601.445 585.141 246" enable-background="new 10.14 601.445 585.141 246"
	 xml:space="preserve">
<g>
	<g>
		<defs>
			<rect id="SVGID_1_" y="303" width="595.281" height="841.89"/>
		</defs>
		<clipPath id="SVGID_2_">
			<use xlink:href="#SVGID_1_"  overflow="visible"/>
		</clipPath>
		<path clip-path="url(#SVGID_2_)" fill="#DF1F26" d="M168.447,670.066c-12.352,0-23.491,4.753-32.015,12.398
			c4.976,7.609,7.926,16.671,7.926,26.441c0,1.639-0.327,3.184-0.485,4.78c-1.204-12.156-6.863-22.995-15.322-30.834
			c-0.195-0.178-0.41-0.326-0.597-0.499c-1.774-1.588-3.678-3.021-5.667-4.338c-0.393-0.261-0.775-0.546-1.176-0.799
			c-2.11-1.301-4.342-2.417-6.657-3.388c-0.476-0.201-0.962-0.401-1.448-0.589c-2.399-0.91-4.892-1.657-7.459-2.18
			c-0.374-0.074-0.756-0.126-1.13-0.191c-2.726-0.485-5.528-0.794-8.394-0.798c-3.277,0.004-6.475,0.341-9.565,0.966
			c-0.532,0.107-1.017,0.327-1.545,0.448c-2.502,0.598-4.958,1.302-7.292,2.264c-0.91,0.379-1.737,0.901-2.614,1.335
			c-1.816,0.882-3.618,1.779-5.299,2.871c-1.144,0.757-2.18,1.648-3.254,2.493c-1.228,0.958-2.465,1.896-3.594,2.965
			c-1.242,1.191-2.363,2.502-3.474,3.823c-0.756,0.888-1.536,1.755-2.231,2.697c-1.171,1.615-2.203,3.334-3.174,5.09
			c-0.439,0.79-0.897,1.563-1.289,2.38c-0.942,1.953-1.728,3.991-2.409,6.079c-0.242,0.752-0.495,1.503-0.7,2.269
			c-0.588,2.152-1.004,4.369-1.288,6.629c-0.257,2.016-0.617,4-0.617,6.087c-3.09,49.697,55.17,105.682,84.45,105.682
			c0.046,0,0.093-0.02,0.131-0.02c0.046,0,0.093,0.02,0.139,0.02c29.28,0,87.54-55.982,84.45-105.682
			C216.848,691.737,195.178,670.066,168.447,670.066"/>
	</g>
	<g>
		<defs>
			<rect id="SVGID_3_" y="303" width="595.281" height="841.89"/>
		</defs>
		<clipPath id="SVGID_4_">
			<use xlink:href="#SVGID_3_"  overflow="visible"/>
		</clipPath>
		<polygon clip-path="url(#SVGID_4_)" fill="#FFFFFF" points="167.99,745.757 146.478,745.757 146.478,724.248 118.393,724.248 
			118.393,745.757 96.883,745.757 96.883,773.841 118.393,773.841 118.393,795.353 146.478,795.353 146.478,773.841 167.99,773.841 
					"/>
	</g>
	<g>
		<defs>
			<rect id="SVGID_5_" y="303" width="595.281" height="841.89"/>
		</defs>
		<clipPath id="SVGID_6_">
			<use xlink:href="#SVGID_5_"  overflow="visible"/>
		</clipPath>
		<path clip-path="url(#SVGID_6_)" fill="#288340" d="M132.213,679.76c0,0-0.158-0.228-0.404-0.654
			c-0.225-0.429-0.635-1.056-0.998-1.854c-0.386-0.8-0.881-1.771-1.331-2.886c-0.501-1.083-0.845-2.44-1.204-3.937
			c-0.32-1.483-0.71-3.171-0.863-4.89c-0.137-1.713-0.233-3.537-0.236-5.426c0.021-0.945,0.135-1.896,0.223-2.863
			c0.081-0.97,0.194-1.95,0.344-2.931c0.346-1.958,0.865-3.918,1.391-5.872c0.723-1.9,1.319-3.842,2.246-5.627
			c0.877-1.804,1.804-3.541,2.917-5.11c1.022-1.609,2.23-3.037,3.389-4.351c1.187-1.301,2.415-2.438,3.604-3.419
			c0.622-0.474,1.192-0.937,1.77-1.342c0.584-0.4,1.151-0.77,1.698-1.09c1.058-0.673,2.132-1.114,2.95-1.498
			c0.838-0.378,1.566-0.575,2.044-0.726c0.479-0.141,0.767-0.188,0.767-0.188l0.216-0.035c0.202-0.031,0.392,0.104,0.425,0.307
			c0.02,0.128-0.029,0.252-0.117,0.334c0,0-0.159,0.144-0.456,0.453c-0.303,0.296-0.719,0.766-1.253,1.354
			c-0.506,0.619-1.156,1.337-1.812,2.238c-0.688,0.873-1.397,1.909-2.189,3.025c-0.411,0.547-0.764,1.169-1.167,1.786
			c-0.386,0.63-0.828,1.252-1.192,1.948c-0.769,1.367-1.593,2.801-2.303,4.359c-0.787,1.521-1.432,3.169-2.111,4.831
			c-0.364,0.82-0.635,1.686-0.924,2.547c-0.29,0.861-0.58,1.726-0.87,2.59c-0.514,1.749-1.011,3.506-1.478,5.241
			c-0.364,1.761-0.722,3.494-1.07,5.171c-0.229,1.699-0.45,3.341-0.66,4.898c-0.205,1.559-0.218,3.041-0.327,4.406
			c-0.073,1.366-0.208,2.615-0.181,3.745c-0.007,1.124-0.014,2.104-0.02,2.911c-0.011,1.615-0.018,2.536-0.018,2.536
			c-0.002,0.203-0.167,0.366-0.369,0.365c-0.123-0.001-0.232-0.063-0.298-0.157L132.213,679.76z"/>
	</g>
	<g>
		<defs>
			<rect id="SVGID_7_" y="303" width="595.281" height="841.89"/>
		</defs>
		<clipPath id="SVGID_8_">
			<use xlink:href="#SVGID_7_"  overflow="visible"/>
		</clipPath>
		<path clip-path="url(#SVGID_8_)" fill="#DF1F26" d="M279.513,687.574c0,0.672-0.224,1.223-0.672,1.651
			c-0.448,0.431-0.99,0.645-1.625,0.645h-14.901c-0.635,0-1.176-0.225-1.625-0.672c-0.448-0.448-0.671-0.989-0.671-1.624v-10.645
			c0-0.635,0.214-1.177,0.644-1.625c0.428-0.447,0.98-0.672,1.652-0.672h14.901c0.709,0,1.269,0.206,1.681,0.616
			c0.411,0.412,0.616,0.972,0.616,1.681V687.574L279.513,687.574z M279.065,760.791c0,0.635-0.243,1.176-0.728,1.625
			c-0.486,0.447-1.009,0.672-1.569,0.672h-14.005c-0.56,0-1.083-0.225-1.568-0.672c-0.486-0.449-0.729-0.99-0.729-1.625v-61.173
			c0-0.561,0.243-1.083,0.729-1.569c0.485-0.484,1.008-0.728,1.568-0.728h14.005c0.56,0,1.083,0.243,1.569,0.728
			c0.485,0.486,0.728,1.009,0.728,1.569V760.791z"/>
	</g>
	<g>
		<defs>
			<rect id="SVGID_9_" y="303" width="595.281" height="841.89"/>
		</defs>
		<clipPath id="SVGID_10_">
			<use xlink:href="#SVGID_9_"  overflow="visible"/>
		</clipPath>
		<path clip-path="url(#SVGID_10_)" fill="#288340" d="M317.158,732.781c0,0.635-0.232,1.139-0.699,1.512
			c-0.469,0.375-1,0.561-1.598,0.561h-22.238c-0.637,0-1.177-0.186-1.625-0.561c-0.449-0.373-0.672-0.877-0.672-1.512v-9.188
			c0-0.635,0.213-1.147,0.643-1.541c0.43-0.392,0.982-0.588,1.654-0.588h22.238c0.598,0,1.129,0.196,1.598,0.588
			c0.467,0.394,0.699,0.906,0.699,1.541V732.781L317.158,732.781z"/>
	</g>
	<g>
		<defs>
			<rect id="SVGID_11_" y="303" width="595.281" height="841.89"/>
		</defs>
		<clipPath id="SVGID_12_">
			<use xlink:href="#SVGID_11_"  overflow="visible"/>
		</clipPath>
		<path clip-path="url(#SVGID_12_)" fill="#288340" d="M414.521,760.677c0,0.637-0.244,1.195-0.729,1.682
			c-0.486,0.484-1.047,0.729-1.682,0.729H398.22c-0.6,0-1.131-0.252-1.598-0.756s-0.699-1.055-0.699-1.652v-39.102
			c0-3.698-0.496-6.209-1.484-7.535c-0.99-1.325-2.829-1.988-5.52-1.988c-2.949,0-5.881,0.691-8.795,2.072
			c0.225,2.241,0.336,4.725,0.336,7.451v39.102c0,0.598-0.232,1.148-0.699,1.652s-1,0.756-1.598,0.756h-13.893
			c-0.637,0-1.195-0.242-1.682-0.729c-0.484-0.484-0.729-1.047-0.729-1.682v-39.101c0-3.698-0.457-6.209-1.372-7.535
			c-0.916-1.325-2.681-1.988-5.294-1.988c-2.018,0-4.91,0.989-8.684,2.968v45.656c0,0.6-0.233,1.148-0.699,1.652
			c-0.469,0.504-1,0.756-1.598,0.756h-13.894c-0.635,0-1.194-0.242-1.68-0.729c-0.486-0.484-0.729-1.045-0.729-1.68v-61.062
			c0-0.561,0.225-1.083,0.672-1.568c0.448-0.484,0.989-0.729,1.625-0.729h13.053c0.635,0,1.177,0.224,1.625,0.672
			c0.447,0.449,0.672,0.991,0.672,1.625v2.577c5.715-3.847,11.371-5.771,16.975-5.771c3.062,0,5.704,0.448,7.928,1.344
			c2.222,0.897,4.098,2.316,5.629,4.259c3.623-2.055,6.75-3.501,9.384-4.343c2.633-0.84,5.741-1.26,9.327-1.26
			c4.854,0,8.748,1.019,11.68,3.053c2.934,2.036,5.006,4.902,6.219,8.6c1.213,3.696,1.82,8.197,1.82,13.501v39.102H414.521z"/>
	</g>
	<g>
		<defs>
			<rect id="SVGID_13_" y="303" width="595.281" height="841.89"/>
		</defs>
		<clipPath id="SVGID_14_">
			<use xlink:href="#SVGID_13_"  overflow="visible"/>
		</clipPath>
		<path clip-path="url(#SVGID_14_)" fill="#288340" d="M483.929,733.285c0,1.83-0.805,2.744-2.408,2.744h-36.58v0.225
			c0,8.328,3.938,12.492,11.818,12.492c2.613,0,6.48-0.121,11.598-0.363c5.115-0.242,8.59-0.457,10.42-0.645h0.336
			c1.455,0,2.184,0.598,2.184,1.793v8.736c0,0.936-0.178,1.637-0.531,2.104c-0.355,0.467-0.98,0.793-1.877,0.979
			c-7.281,1.83-15.125,2.744-23.527,2.744c-3.734,0-7.273-0.521-10.615-1.566c-3.344-1.045-6.387-2.727-9.131-5.041
			c-2.746-2.316-4.939-5.389-6.582-9.217c-1.646-3.826-2.467-8.375-2.467-13.641v-8.012c0-6.198,1.156-11.559,3.475-16.077
			c2.314-4.518,5.658-8.001,10.027-10.448c4.369-2.444,9.541-3.669,15.518-3.669c6.086,0,11.268,1.289,15.545,3.866
			c4.275,2.576,7.48,6.153,9.607,10.727c2.129,4.575,3.191,9.776,3.191,15.602V733.285L483.929,733.285z M465.835,724.544v-0.447
			c0-4.22-0.906-7.403-2.717-9.552c-1.812-2.146-4.361-3.221-7.648-3.221c-3.248,0-5.816,1.102-7.701,3.305
			c-1.887,2.205-2.83,5.36-2.83,9.468v0.447H465.835L465.835,724.544z"/>
	</g>
	<g>
		<defs>
			<rect id="SVGID_15_" y="303" width="595.281" height="841.89"/>
		</defs>
		<clipPath id="SVGID_16_">
			<use xlink:href="#SVGID_15_"  overflow="visible"/>
		</clipPath>
		<path clip-path="url(#SVGID_16_)" fill="#288340" d="M550.705,757.822c0,0.971-0.234,1.688-0.701,2.154
			c-0.467,0.469-1.428,0.852-2.885,1.148c-3.92,0.934-7.908,1.662-11.959,2.186c-4.053,0.521-8.207,0.783-12.465,0.783
			c-6.162,0-11.4-1.146-15.715-3.443c-4.312-2.299-7.57-5.641-9.773-10.027c-2.205-4.387-3.307-9.682-3.307-15.881v-8.963
			c0-5.976,1.064-11.177,3.193-15.603s5.34-7.824,9.635-10.195s9.617-3.558,15.967-3.558c1.418,0,2.828,0.056,4.229,0.168
			s3.127,0.318,5.182,0.616v-19.831c0-0.56,0.225-1.082,0.674-1.568c0.447-0.484,0.988-0.728,1.623-0.728h13.893
			c0.598,0,1.15,0.232,1.654,0.7c0.504,0.467,0.756,1,0.756,1.596V757.822z M532.107,748.185v-35.796
			c-3.064-0.373-6.201-0.56-9.412-0.56c-3.811,0-6.461,1.204-7.955,3.613c-1.494,2.408-2.24,5.854-2.24,10.336v8.963
			c0,4.557,0.756,8.047,2.268,10.475c1.514,2.43,4.154,3.643,7.928,3.643C526.056,748.859,529.193,748.632,532.107,748.185"/>
	</g>
	<g>
		<defs>
			<rect id="SVGID_17_" y="303" width="595.281" height="841.89"/>
		</defs>
		<clipPath id="SVGID_18_">
			<use xlink:href="#SVGID_17_"  overflow="visible"/>
		</clipPath>
		<path clip-path="url(#SVGID_18_)" fill="#288340" d="M260.629,790.306v-11.799h1.736c0.368,0,0.61,0.172,0.725,0.518l0.184,0.875
			c0.207-0.23,0.423-0.441,0.65-0.635c0.226-0.189,0.467-0.355,0.724-0.492c0.257-0.141,0.533-0.248,0.828-0.328
			s0.619-0.121,0.972-0.121c0.743,0,1.355,0.201,1.834,0.604c0.479,0.402,0.838,0.938,1.076,1.604
			c0.184-0.391,0.414-0.727,0.689-1.006c0.276-0.279,0.579-0.508,0.909-0.686c0.329-0.176,0.68-0.307,1.052-0.391
			s0.746-0.127,1.121-0.127c0.652,0,1.231,0.102,1.737,0.301c0.506,0.199,0.931,0.49,1.277,0.873
			c0.344,0.383,0.607,0.852,0.787,1.402c0.18,0.553,0.27,1.186,0.27,1.896v7.51h-2.84v-7.51c0-0.75-0.165-1.316-0.495-1.695
			c-0.329-0.379-0.812-0.568-1.448-0.568c-0.292,0-0.562,0.051-0.811,0.148c-0.249,0.102-0.468,0.244-0.656,0.432
			c-0.188,0.188-0.335,0.424-0.443,0.707c-0.107,0.283-0.161,0.609-0.161,0.979v7.51h-2.852v-7.51c0-0.789-0.159-1.365-0.477-1.725
			c-0.318-0.361-0.787-0.541-1.409-0.541c-0.406,0-0.787,0.102-1.144,0.305c-0.356,0.203-0.688,0.48-0.995,0.834v8.637H260.629
			L260.629,790.306z"/>
	</g>
	<g>
		<defs>
			<rect id="SVGID_19_" y="303" width="595.281" height="841.89"/>
		</defs>
		<clipPath id="SVGID_20_">
			<use xlink:href="#SVGID_19_"  overflow="visible"/>
		</clipPath>
		<path clip-path="url(#SVGID_20_)" fill="#288340" d="M284.871,778.324c0.744,0,1.428,0.119,2.053,0.355
			c0.625,0.238,1.163,0.584,1.616,1.041c0.452,0.455,0.805,1.018,1.058,1.68s0.379,1.42,0.379,2.271
			c0,0.213-0.009,0.393-0.028,0.533c-0.02,0.143-0.054,0.254-0.104,0.334c-0.051,0.08-0.117,0.139-0.201,0.174
			c-0.085,0.033-0.191,0.051-0.322,0.051h-7.291c0.084,1.211,0.41,2.102,0.977,2.668c0.567,0.566,1.319,0.852,2.254,0.852
			c0.46,0,0.857-0.055,1.19-0.16c0.334-0.107,0.625-0.229,0.874-0.357c0.249-0.131,0.468-0.25,0.656-0.355
			c0.188-0.107,0.37-0.16,0.546-0.16c0.115,0,0.215,0.021,0.299,0.068c0.084,0.045,0.157,0.109,0.219,0.193l0.829,1.037
			c-0.315,0.367-0.668,0.676-1.059,0.924c-0.391,0.25-0.8,0.451-1.225,0.6c-0.425,0.148-0.859,0.256-1.299,0.314
			c-0.441,0.062-0.869,0.094-1.282,0.094c-0.821,0-1.584-0.137-2.289-0.408c-0.706-0.271-1.319-0.674-1.84-1.207
			c-0.522-0.533-0.931-1.191-1.231-1.979c-0.299-0.787-0.448-1.695-0.448-2.73c0-0.807,0.13-1.562,0.391-2.271
			c0.26-0.709,0.634-1.326,1.121-1.852c0.487-0.525,1.081-0.941,1.782-1.248C283.198,778.476,283.99,778.324,284.871,778.324
			 M284.929,780.359c-0.828,0-1.476,0.232-1.944,0.701c-0.468,0.469-0.766,1.131-0.897,1.988h5.336c0-0.367-0.05-0.713-0.149-1.039
			c-0.1-0.326-0.253-0.611-0.46-0.857c-0.207-0.244-0.468-0.438-0.782-0.58C285.719,780.429,285.35,780.359,284.929,780.359"/>
	</g>
	<g>
		<defs>
			<rect id="SVGID_21_" y="303" width="595.281" height="841.89"/>
		</defs>
		<clipPath id="SVGID_22_">
			<use xlink:href="#SVGID_21_"  overflow="visible"/>
		</clipPath>
		<path clip-path="url(#SVGID_22_)" fill="#288340" d="M300.591,790.306c-0.368,0-0.609-0.174-0.725-0.518l-0.229-1.139
			c-0.246,0.275-0.503,0.523-0.771,0.746c-0.27,0.225-0.56,0.414-0.869,0.574c-0.311,0.162-0.645,0.287-1,0.375
			c-0.356,0.088-0.742,0.133-1.156,0.133c-0.644,0-1.234-0.135-1.771-0.402c-0.536-0.27-0.999-0.658-1.386-1.168
			s-0.686-1.141-0.896-1.893c-0.211-0.75-0.316-1.609-0.316-2.574c0-0.875,0.119-1.688,0.357-2.439
			c0.236-0.752,0.578-1.402,1.022-1.955c0.444-0.551,0.978-0.982,1.599-1.293c0.62-0.311,1.318-0.467,2.092-0.467
			c0.66,0,1.224,0.105,1.691,0.316c0.469,0.211,0.887,0.492,1.253,0.846v-6.232h2.843v17.088h-1.738V790.306z M296.808,788.224
			c0.59,0,1.092-0.123,1.506-0.367s0.807-0.596,1.173-1.047v-5.291c-0.321-0.391-0.672-0.666-1.052-0.826
			c-0.379-0.162-0.788-0.242-1.225-0.242c-0.43,0-0.818,0.08-1.168,0.242c-0.349,0.16-0.644,0.402-0.885,0.729
			c-0.242,0.326-0.428,0.742-0.558,1.242c-0.13,0.502-0.196,1.096-0.196,1.777c0,0.689,0.057,1.273,0.167,1.754
			c0.111,0.479,0.271,0.869,0.478,1.172s0.459,0.521,0.76,0.656C296.105,788.158,296.439,788.224,296.808,788.224"/>
	</g>
	<g>
		<defs>
			<rect id="SVGID_23_" y="303" width="595.281" height="841.89"/>
		</defs>
		<clipPath id="SVGID_24_">
			<use xlink:href="#SVGID_23_"  overflow="visible"/>
		</clipPath>
		<path clip-path="url(#SVGID_24_)" fill="#288340" d="M308.848,775.07c0,0.244-0.05,0.475-0.149,0.688
			c-0.1,0.215-0.23,0.404-0.396,0.564s-0.358,0.289-0.581,0.385s-0.46,0.145-0.713,0.145c-0.246,0-0.477-0.049-0.695-0.145
			c-0.218-0.096-0.408-0.225-0.57-0.385c-0.16-0.16-0.289-0.35-0.385-0.564c-0.096-0.213-0.145-0.443-0.145-0.688
			c0-0.254,0.049-0.492,0.145-0.713c0.096-0.225,0.225-0.414,0.385-0.576c0.162-0.162,0.353-0.289,0.57-0.387
			c0.219-0.096,0.449-0.143,0.695-0.143c0.253,0,0.49,0.047,0.713,0.143c0.223,0.098,0.416,0.225,0.581,0.387
			s0.297,0.354,0.396,0.576C308.798,774.578,308.848,774.816,308.848,775.07 M308.421,790.306h-2.84v-11.799h2.84V790.306z"/>
	</g>
	<g>
		<defs>
			<rect id="SVGID_25_" y="303" width="595.281" height="841.89"/>
		</defs>
		<clipPath id="SVGID_26_">
			<use xlink:href="#SVGID_25_"  overflow="visible"/>
		</clipPath>
		<path clip-path="url(#SVGID_26_)" fill="#288340" d="M319.921,781.001c-0.084,0.107-0.166,0.193-0.246,0.254
			c-0.082,0.062-0.196,0.092-0.352,0.092c-0.146,0-0.287-0.045-0.426-0.133c-0.137-0.088-0.303-0.188-0.494-0.299
			s-0.419-0.211-0.684-0.299c-0.266-0.088-0.594-0.133-0.984-0.133c-0.498,0-0.936,0.092-1.311,0.271s-0.688,0.439-0.938,0.775
			c-0.247,0.338-0.437,0.746-0.557,1.225c-0.123,0.48-0.187,1.021-0.187,1.627c0,0.629,0.068,1.189,0.201,1.682
			c0.135,0.488,0.328,0.9,0.582,1.234c0.252,0.334,0.559,0.586,0.92,0.76c0.359,0.172,0.766,0.26,1.219,0.26
			c0.451,0,0.818-0.057,1.099-0.168s0.516-0.232,0.707-0.367c0.19-0.133,0.358-0.258,0.5-0.369c0.144-0.109,0.301-0.166,0.479-0.166
			c0.229,0,0.401,0.088,0.518,0.264l0.816,1.035c-0.314,0.369-0.656,0.678-1.023,0.926c-0.369,0.25-0.75,0.449-1.145,0.6
			c-0.396,0.15-0.804,0.256-1.226,0.314c-0.422,0.062-0.841,0.094-1.254,0.094c-0.729,0-1.414-0.137-2.06-0.408
			c-0.645-0.271-1.205-0.668-1.684-1.189c-0.48-0.521-0.859-1.16-1.141-1.916c-0.28-0.754-0.418-1.615-0.418-2.582
			c0-0.865,0.123-1.668,0.373-2.408c0.248-0.738,0.615-1.381,1.098-1.92c0.484-0.541,1.082-0.965,1.795-1.271
			s1.533-0.459,2.461-0.459c0.881,0,1.654,0.143,2.316,0.426c0.664,0.283,1.26,0.689,1.789,1.219L319.921,781.001z"/>
	</g>
	<g>
		<defs>
			<rect id="SVGID_27_" y="303" width="595.281" height="841.89"/>
		</defs>
		<clipPath id="SVGID_28_">
			<use xlink:href="#SVGID_27_"  overflow="visible"/>
		</clipPath>
		<path clip-path="url(#SVGID_28_)" fill="#288340" d="M326.052,775.07c0,0.244-0.051,0.475-0.149,0.688
			c-0.1,0.215-0.231,0.404-0.396,0.564c-0.166,0.16-0.358,0.289-0.582,0.385c-0.223,0.096-0.459,0.145-0.713,0.145
			c-0.244,0-0.478-0.049-0.694-0.145c-0.22-0.096-0.408-0.225-0.569-0.385c-0.16-0.16-0.289-0.35-0.385-0.564
			c-0.098-0.213-0.145-0.443-0.145-0.688c0-0.254,0.047-0.492,0.145-0.713c0.096-0.225,0.225-0.414,0.385-0.576
			c0.161-0.162,0.352-0.289,0.569-0.387c0.218-0.096,0.45-0.143,0.694-0.143c0.254,0,0.49,0.047,0.713,0.143
			c0.224,0.098,0.416,0.225,0.582,0.387c0.164,0.162,0.297,0.354,0.396,0.576C326.001,774.578,326.052,774.816,326.052,775.07
			 M325.626,790.306h-2.84v-11.799h2.84V790.306z"/>
	</g>
	<g>
		<defs>
			<rect id="SVGID_29_" y="303" width="595.281" height="841.89"/>
		</defs>
		<clipPath id="SVGID_30_">
			<use xlink:href="#SVGID_29_"  overflow="visible"/>
		</clipPath>
		<path clip-path="url(#SVGID_30_)" fill="#288340" d="M328.833,790.306v-11.799h1.737c0.366,0,0.609,0.172,0.724,0.518l0.197,0.932
			c0.236-0.246,0.488-0.467,0.752-0.666c0.266-0.199,0.545-0.373,0.84-0.518c0.295-0.146,0.611-0.258,0.949-0.336
			c0.338-0.074,0.704-0.113,1.104-0.113c0.645,0,1.215,0.107,1.713,0.328c0.499,0.217,0.914,0.523,1.248,0.92
			c0.334,0.395,0.587,0.865,0.759,1.414c0.173,0.549,0.259,1.15,0.259,1.811v7.51h-2.84v-7.51c0-0.721-0.167-1.277-0.501-1.672
			c-0.333-0.395-0.834-0.594-1.501-0.594c-0.49,0-0.949,0.111-1.38,0.334c-0.429,0.223-0.835,0.525-1.22,0.908v8.533H328.833
			L328.833,790.306z"/>
	</g>
	<g>
		<defs>
			<rect id="SVGID_31_" y="303" width="595.281" height="841.89"/>
		</defs>
		<clipPath id="SVGID_32_">
			<use xlink:href="#SVGID_31_"  overflow="visible"/>
		</clipPath>
		<path clip-path="url(#SVGID_32_)" fill="#288340" d="M351.155,790.306h-1.276c-0.269,0-0.479-0.041-0.631-0.121
			c-0.154-0.08-0.27-0.242-0.347-0.488l-0.253-0.84c-0.299,0.27-0.592,0.506-0.88,0.707c-0.287,0.203-0.584,0.373-0.892,0.512
			c-0.307,0.139-0.633,0.242-0.978,0.311c-0.346,0.07-0.729,0.105-1.149,0.105c-0.498,0-0.959-0.068-1.381-0.201
			c-0.423-0.135-0.783-0.338-1.088-0.605c-0.302-0.27-0.537-0.604-0.705-1.004c-0.171-0.4-0.254-0.865-0.254-1.396
			c0-0.445,0.116-0.887,0.352-1.32c0.232-0.436,0.623-0.828,1.166-1.178c0.546-0.352,1.271-0.641,2.175-0.871
			c0.903-0.23,2.026-0.346,3.368-0.346v-0.695c0-0.795-0.166-1.385-0.5-1.768c-0.332-0.383-0.817-0.574-1.454-0.574
			c-0.46,0-0.843,0.055-1.149,0.162c-0.306,0.105-0.572,0.229-0.8,0.361c-0.226,0.135-0.435,0.254-0.626,0.361
			s-0.404,0.162-0.633,0.162c-0.191,0-0.355-0.051-0.494-0.15s-0.25-0.223-0.334-0.367l-0.518-0.908
			c1.356-1.242,2.994-1.863,4.91-1.863c0.689,0,1.305,0.113,1.846,0.34s0.998,0.541,1.375,0.943c0.375,0.4,0.66,0.883,0.855,1.441
			c0.195,0.561,0.293,1.174,0.293,1.842L351.155,790.306L351.155,790.306z M345.636,788.535c0.291,0,0.56-0.025,0.805-0.078
			s0.479-0.133,0.696-0.238c0.218-0.104,0.429-0.234,0.632-0.391c0.203-0.154,0.408-0.338,0.615-0.549v-1.977
			c-0.828,0-1.521,0.055-2.075,0.158c-0.558,0.104-1.003,0.236-1.341,0.398s-0.576,0.352-0.719,0.566
			c-0.143,0.217-0.213,0.451-0.213,0.707c0,0.502,0.147,0.861,0.442,1.076C344.774,788.427,345.16,788.535,345.636,788.535"/>
	</g>
	<g>
		<defs>
			<rect id="SVGID_33_" y="303" width="595.281" height="841.89"/>
		</defs>
		<clipPath id="SVGID_34_">
			<use xlink:href="#SVGID_33_"  overflow="visible"/>
		</clipPath>
		<path clip-path="url(#SVGID_34_)" fill="#288340" d="M365.275,778.324c0.744,0,1.43,0.119,2.053,0.355
			c0.625,0.238,1.164,0.584,1.616,1.041c0.452,0.455,0.806,1.018,1.058,1.68c0.254,0.662,0.381,1.42,0.381,2.271
			c0,0.213-0.01,0.393-0.028,0.533c-0.021,0.143-0.054,0.254-0.104,0.334s-0.117,0.139-0.201,0.174
			c-0.084,0.033-0.191,0.051-0.321,0.051h-7.291c0.084,1.211,0.41,2.102,0.978,2.668c0.568,0.566,1.318,0.852,2.254,0.852
			c0.461,0,0.856-0.055,1.19-0.16c0.333-0.107,0.624-0.229,0.874-0.357c0.249-0.131,0.467-0.25,0.655-0.355
			c0.188-0.107,0.37-0.16,0.546-0.16c0.115,0,0.215,0.021,0.299,0.068c0.085,0.045,0.157,0.109,0.219,0.193l0.828,1.037
			c-0.314,0.367-0.667,0.676-1.058,0.924c-0.392,0.25-0.8,0.451-1.226,0.6s-0.859,0.256-1.3,0.314
			c-0.44,0.062-0.868,0.094-1.282,0.094c-0.82,0-1.582-0.137-2.289-0.408c-0.705-0.271-1.317-0.674-1.84-1.207
			c-0.521-0.533-0.932-1.191-1.23-1.979c-0.297-0.787-0.447-1.695-0.447-2.73c0-0.807,0.13-1.562,0.391-2.271
			c0.262-0.709,0.635-1.326,1.121-1.852c0.487-0.525,1.081-0.941,1.783-1.248C363.603,778.476,364.395,778.324,365.275,778.324
			 M365.333,780.359c-0.828,0-1.477,0.232-1.943,0.701s-0.768,1.131-0.896,1.988h5.336c0-0.367-0.049-0.713-0.148-1.039
			s-0.253-0.611-0.46-0.857c-0.207-0.244-0.468-0.438-0.783-0.58S365.755,780.359,365.333,780.359"/>
	</g>
	<g>
		<defs>
			<rect id="SVGID_35_" y="303" width="595.281" height="841.89"/>
		</defs>
		<clipPath id="SVGID_36_">
			<use xlink:href="#SVGID_35_"  overflow="visible"/>
		</clipPath>
		<path clip-path="url(#SVGID_36_)" fill="#288340" d="M379.696,780.806c-0.077,0.123-0.157,0.209-0.241,0.26
			s-0.191,0.074-0.322,0.074c-0.137,0-0.285-0.039-0.441-0.113c-0.156-0.078-0.34-0.164-0.547-0.26s-0.441-0.184-0.707-0.26
			s-0.577-0.115-0.938-0.115c-0.561,0-1,0.119-1.323,0.357c-0.321,0.238-0.482,0.549-0.482,0.932c0,0.252,0.083,0.467,0.248,0.639
			c0.164,0.172,0.384,0.322,0.655,0.455c0.271,0.129,0.581,0.246,0.926,0.35c0.346,0.105,0.697,0.217,1.059,0.34
			c0.359,0.123,0.713,0.262,1.059,0.42c0.345,0.156,0.652,0.355,0.926,0.598c0.271,0.242,0.49,0.531,0.655,0.869
			s0.247,0.742,0.247,1.219c0,0.566-0.104,1.092-0.311,1.568c-0.207,0.48-0.511,0.895-0.908,1.242
			c-0.399,0.35-0.893,0.621-1.479,0.816c-0.587,0.195-1.26,0.293-2.02,0.293c-0.405,0-0.803-0.035-1.189-0.107
			c-0.387-0.074-0.759-0.176-1.115-0.307c-0.355-0.129-0.687-0.283-0.988-0.459c-0.303-0.176-0.569-0.367-0.799-0.574l0.654-1.082
			c0.084-0.131,0.184-0.229,0.299-0.299c0.115-0.068,0.262-0.104,0.438-0.104c0.177,0,0.344,0.051,0.501,0.148
			c0.157,0.1,0.339,0.207,0.546,0.322c0.207,0.113,0.449,0.223,0.73,0.32c0.278,0.102,0.633,0.15,1.062,0.15
			c0.338,0,0.627-0.041,0.867-0.121c0.242-0.08,0.441-0.186,0.6-0.314c0.156-0.133,0.271-0.283,0.346-0.455
			c0.071-0.174,0.108-0.352,0.108-0.535c0-0.275-0.083-0.502-0.247-0.68c-0.165-0.176-0.384-0.328-0.656-0.459
			c-0.271-0.131-0.582-0.246-0.932-0.352c-0.35-0.104-0.705-0.217-1.068-0.338c-0.365-0.123-0.722-0.268-1.07-0.432
			c-0.348-0.166-0.658-0.375-0.932-0.629c-0.271-0.252-0.49-0.562-0.654-0.932c-0.166-0.369-0.248-0.811-0.248-1.334
			c0-0.482,0.097-0.941,0.287-1.379c0.191-0.438,0.475-0.818,0.847-1.146c0.372-0.324,0.835-0.586,1.392-0.779
			c0.557-0.195,1.197-0.295,1.926-0.295c0.812,0,1.553,0.135,2.221,0.402c0.666,0.27,1.223,0.621,1.666,1.059L379.696,780.806z"/>
	</g>
	<g>
		<defs>
			<rect id="SVGID_37_" y="303" width="595.281" height="841.89"/>
		</defs>
		<clipPath id="SVGID_38_">
			<use xlink:href="#SVGID_37_"  overflow="visible"/>
		</clipPath>
		<path clip-path="url(#SVGID_38_)" fill="#288340" d="M386.619,790.49c-1.021,0-1.806-0.289-2.356-0.867
			c-0.552-0.578-0.828-1.379-0.828-2.398v-6.59h-1.196c-0.152,0-0.285-0.049-0.396-0.148c-0.11-0.1-0.166-0.248-0.166-0.447v-1.127
			l1.896-0.312l0.6-3.219c0.029-0.154,0.102-0.271,0.213-0.355c0.109-0.086,0.25-0.129,0.419-0.129h1.473v3.717h3.104v2.021h-3.104
			v6.396c0,0.367,0.093,0.654,0.274,0.861c0.186,0.207,0.431,0.311,0.736,0.311c0.176,0,0.324-0.021,0.442-0.062
			c0.119-0.043,0.224-0.086,0.312-0.133c0.088-0.045,0.166-0.09,0.235-0.133c0.067-0.041,0.138-0.062,0.207-0.062
			c0.084,0,0.153,0.021,0.207,0.062c0.054,0.043,0.11,0.105,0.172,0.191l0.853,1.379c-0.414,0.346-0.891,0.605-1.428,0.781
			S387.194,790.49,386.619,790.49"/>
	</g>
	<g>
		<defs>
			<rect id="SVGID_39_" y="303" width="595.281" height="841.89"/>
		</defs>
		<clipPath id="SVGID_40_">
			<use xlink:href="#SVGID_39_"  overflow="visible"/>
		</clipPath>
		<path clip-path="url(#SVGID_40_)" fill="#288340" d="M396.519,778.324c0.744,0,1.43,0.119,2.055,0.355
			c0.625,0.238,1.164,0.584,1.615,1.041c0.451,0.455,0.805,1.018,1.059,1.68c0.252,0.662,0.379,1.42,0.379,2.271
			c0,0.213-0.01,0.393-0.027,0.533c-0.02,0.143-0.055,0.254-0.104,0.334c-0.051,0.08-0.117,0.139-0.203,0.174
			c-0.084,0.033-0.191,0.051-0.32,0.051h-7.291c0.084,1.211,0.41,2.102,0.979,2.668c0.565,0.566,1.316,0.852,2.254,0.852
			c0.459,0,0.854-0.055,1.189-0.16c0.332-0.107,0.623-0.229,0.873-0.357c0.248-0.131,0.469-0.25,0.656-0.355
			c0.188-0.107,0.369-0.16,0.545-0.16c0.115,0,0.215,0.021,0.299,0.068c0.086,0.045,0.158,0.109,0.221,0.193l0.828,1.037
			c-0.314,0.367-0.668,0.676-1.059,0.924c-0.393,0.25-0.801,0.451-1.227,0.6c-0.424,0.148-0.857,0.256-1.299,0.314
			c-0.441,0.062-0.867,0.094-1.281,0.094c-0.82,0-1.584-0.137-2.289-0.408s-1.318-0.674-1.841-1.207
			c-0.521-0.533-0.932-1.191-1.229-1.979c-0.299-0.787-0.449-1.695-0.449-2.73c0-0.807,0.131-1.562,0.393-2.271
			c0.26-0.709,0.635-1.326,1.12-1.852c0.486-0.527,1.081-0.941,1.783-1.248C394.847,778.476,395.639,778.324,396.519,778.324
			 M396.578,780.359c-0.828,0-1.477,0.232-1.943,0.701s-0.768,1.131-0.896,1.988h5.336c0-0.367-0.049-0.713-0.148-1.039
			s-0.254-0.611-0.461-0.857c-0.207-0.244-0.467-0.438-0.783-0.58C397.367,780.429,397,780.359,396.578,780.359"/>
	</g>
	<g>
		<defs>
			<rect id="SVGID_41_" y="303" width="595.281" height="841.89"/>
		</defs>
		<clipPath id="SVGID_42_">
			<use xlink:href="#SVGID_41_"  overflow="visible"/>
		</clipPath>
		<path clip-path="url(#SVGID_42_)" fill="#288340" d="M407.812,790.49c-1.02,0-1.807-0.289-2.357-0.867s-0.828-1.379-0.828-2.398
			v-6.59h-1.195c-0.152,0-0.285-0.049-0.396-0.148s-0.166-0.248-0.166-0.447v-1.127l1.896-0.312l0.6-3.219
			c0.029-0.154,0.102-0.271,0.213-0.355c0.109-0.086,0.25-0.129,0.418-0.129h1.473v3.717h3.105v2.021h-3.105v6.396
			c0,0.367,0.092,0.654,0.275,0.861c0.186,0.207,0.43,0.311,0.736,0.311c0.176,0,0.324-0.021,0.441-0.062
			c0.119-0.043,0.223-0.086,0.312-0.133c0.088-0.045,0.166-0.09,0.234-0.133c0.068-0.041,0.139-0.062,0.207-0.062
			c0.084,0,0.154,0.021,0.207,0.062c0.053,0.043,0.111,0.105,0.172,0.191l0.854,1.379c-0.414,0.346-0.891,0.605-1.428,0.781
			S408.388,790.49,407.812,790.49"/>
	</g>
	<g>
		<defs>
			<rect id="SVGID_43_" y="303" width="595.281" height="841.89"/>
		</defs>
		<clipPath id="SVGID_44_">
			<use xlink:href="#SVGID_43_"  overflow="visible"/>
		</clipPath>
		<path clip-path="url(#SVGID_44_)" fill="#288340" d="M416.287,775.07c0,0.244-0.049,0.475-0.148,0.688
			c-0.1,0.215-0.23,0.404-0.396,0.564c-0.164,0.16-0.357,0.289-0.58,0.385s-0.461,0.145-0.713,0.145
			c-0.246,0-0.479-0.049-0.695-0.145c-0.219-0.096-0.408-0.225-0.57-0.385c-0.16-0.16-0.289-0.35-0.385-0.564
			c-0.096-0.213-0.145-0.443-0.145-0.688c0-0.254,0.049-0.492,0.145-0.713c0.096-0.225,0.225-0.414,0.385-0.576
			c0.162-0.162,0.352-0.289,0.57-0.387c0.217-0.096,0.449-0.143,0.695-0.143c0.252,0,0.488,0.047,0.713,0.143
			c0.223,0.098,0.416,0.225,0.58,0.387c0.166,0.162,0.297,0.354,0.396,0.576C416.238,774.578,416.287,774.816,416.287,775.07
			 M415.863,790.306h-2.842v-11.799h2.842V790.306z"/>
	</g>
	<g>
		<defs>
			<rect id="SVGID_45_" y="303" width="595.281" height="841.89"/>
		</defs>
		<clipPath id="SVGID_46_">
			<use xlink:href="#SVGID_45_"  overflow="visible"/>
		</clipPath>
		<path clip-path="url(#SVGID_46_)" fill="#288340" d="M427.363,781.001c-0.086,0.107-0.168,0.193-0.248,0.254
			c-0.08,0.062-0.197,0.092-0.352,0.092c-0.145,0-0.287-0.045-0.426-0.133c-0.137-0.088-0.303-0.188-0.494-0.299
			s-0.418-0.211-0.684-0.299s-0.594-0.133-0.984-0.133c-0.498,0-0.936,0.092-1.311,0.271s-0.688,0.439-0.938,0.775
			c-0.25,0.338-0.436,0.746-0.559,1.225c-0.123,0.48-0.186,1.021-0.186,1.627c0,0.629,0.068,1.189,0.201,1.682
			c0.135,0.488,0.328,0.9,0.582,1.234c0.252,0.334,0.561,0.586,0.92,0.76c0.359,0.172,0.768,0.26,1.219,0.26s0.818-0.057,1.1-0.168
			c0.279-0.111,0.516-0.232,0.707-0.367c0.189-0.133,0.357-0.258,0.5-0.369c0.143-0.109,0.301-0.166,0.477-0.166
			c0.23,0,0.402,0.088,0.52,0.264l0.814,1.035c-0.312,0.369-0.654,0.678-1.021,0.926c-0.369,0.25-0.75,0.449-1.146,0.6
			c-0.395,0.148-0.803,0.256-1.225,0.314c-0.422,0.062-0.838,0.094-1.252,0.094c-0.73,0-1.416-0.137-2.061-0.408
			s-1.205-0.668-1.684-1.189c-0.48-0.521-0.859-1.16-1.139-1.916c-0.281-0.754-0.42-1.615-0.42-2.582
			c0-0.865,0.123-1.668,0.373-2.408c0.248-0.738,0.615-1.381,1.098-1.92c0.482-0.541,1.082-0.965,1.795-1.271
			s1.533-0.459,2.461-0.459c0.881,0,1.654,0.143,2.316,0.426s1.26,0.689,1.787,1.219L427.363,781.001z"/>
	</g>
	<g>
		<defs>
			<rect id="SVGID_47_" y="303" width="595.281" height="841.89"/>
		</defs>
		<clipPath id="SVGID_48_">
			<use xlink:href="#SVGID_47_"  overflow="visible"/>
		</clipPath>
		<path clip-path="url(#SVGID_48_)" fill="#288340" d="M439.287,790.306h-1.275c-0.27,0-0.479-0.041-0.633-0.121
			s-0.268-0.242-0.346-0.488l-0.252-0.84c-0.301,0.27-0.594,0.506-0.881,0.707c-0.287,0.203-0.584,0.373-0.891,0.512
			s-0.633,0.242-0.979,0.311c-0.346,0.07-0.729,0.105-1.15,0.105c-0.498,0-0.957-0.068-1.379-0.201
			c-0.422-0.135-0.785-0.338-1.088-0.605c-0.303-0.27-0.537-0.604-0.707-1.004c-0.168-0.4-0.252-0.865-0.252-1.396
			c0-0.445,0.115-0.887,0.35-1.32c0.234-0.436,0.623-0.828,1.168-1.178c0.545-0.352,1.27-0.641,2.174-0.871s2.027-0.346,3.369-0.346
			v-0.695c0-0.795-0.166-1.385-0.5-1.768s-0.818-0.574-1.455-0.574c-0.461,0-0.844,0.055-1.148,0.162
			c-0.307,0.105-0.574,0.229-0.801,0.361c-0.227,0.135-0.436,0.254-0.625,0.361c-0.193,0.107-0.404,0.162-0.635,0.162
			c-0.189,0-0.355-0.051-0.492-0.15c-0.141-0.1-0.25-0.223-0.334-0.367l-0.52-0.908c1.357-1.242,2.994-1.863,4.91-1.863
			c0.691,0,1.307,0.113,1.848,0.34c0.539,0.227,0.998,0.541,1.373,0.943c0.375,0.4,0.662,0.883,0.857,1.441
			c0.193,0.561,0.293,1.174,0.293,1.842V790.306L439.287,790.306z M433.767,788.535c0.291,0,0.561-0.025,0.807-0.078
			c0.244-0.053,0.477-0.133,0.695-0.238c0.219-0.104,0.43-0.234,0.633-0.391c0.201-0.154,0.406-0.338,0.613-0.549v-1.977
			c-0.828,0-1.52,0.055-2.074,0.158c-0.557,0.104-1.004,0.236-1.34,0.398c-0.338,0.162-0.576,0.352-0.719,0.566
			c-0.143,0.217-0.213,0.451-0.213,0.707c0,0.502,0.146,0.861,0.441,1.076C432.906,788.427,433.292,788.535,433.767,788.535"/>
	</g>
	<g>
		<defs>
			<rect id="SVGID_49_" y="303" width="595.281" height="841.89"/>
		</defs>
		<clipPath id="SVGID_50_">
			<use xlink:href="#SVGID_49_"  overflow="visible"/>
		</clipPath>
		<path clip-path="url(#SVGID_50_)" fill="#288340" d="M456.833,790.306c-0.367,0-0.609-0.174-0.725-0.518l-0.23-1.139
			c-0.244,0.275-0.502,0.523-0.77,0.746c-0.27,0.225-0.559,0.414-0.869,0.574c-0.311,0.162-0.645,0.287-1,0.375
			s-0.742,0.133-1.156,0.133c-0.645,0-1.234-0.135-1.771-0.402c-0.535-0.27-0.998-0.658-1.385-1.168
			c-0.389-0.51-0.688-1.141-0.898-1.893c-0.209-0.75-0.314-1.609-0.314-2.574c0-0.875,0.119-1.688,0.355-2.439
			c0.238-0.752,0.58-1.402,1.023-1.955c0.445-0.551,0.977-0.982,1.6-1.293c0.619-0.311,1.318-0.467,2.094-0.467
			c0.658,0,1.223,0.105,1.689,0.316s0.885,0.492,1.252,0.846v-6.232h2.842v17.088h-1.736V790.306z M453.05,788.224
			c0.59,0,1.092-0.123,1.506-0.367s0.807-0.596,1.174-1.047v-5.291c-0.322-0.391-0.674-0.666-1.053-0.826
			c-0.379-0.162-0.787-0.242-1.225-0.242c-0.43,0-0.818,0.08-1.168,0.242c-0.35,0.16-0.645,0.402-0.885,0.729
			c-0.242,0.326-0.428,0.742-0.559,1.242c-0.131,0.502-0.195,1.096-0.195,1.777c0,0.689,0.057,1.273,0.166,1.754
			c0.111,0.479,0.271,0.869,0.479,1.172s0.461,0.521,0.76,0.656S452.683,788.224,453.05,788.224"/>
	</g>
	<g>
		<defs>
			<rect id="SVGID_51_" y="303" width="595.281" height="841.89"/>
		</defs>
		<clipPath id="SVGID_52_">
			<use xlink:href="#SVGID_51_"  overflow="visible"/>
		</clipPath>
		<path clip-path="url(#SVGID_52_)" fill="#288340" d="M465.089,775.07c0,0.244-0.049,0.475-0.148,0.688
			c-0.1,0.215-0.23,0.404-0.396,0.564c-0.164,0.16-0.357,0.289-0.58,0.385s-0.461,0.145-0.713,0.145
			c-0.246,0-0.479-0.049-0.695-0.145c-0.219-0.096-0.408-0.225-0.568-0.385c-0.162-0.16-0.291-0.35-0.387-0.564
			c-0.096-0.213-0.145-0.443-0.145-0.688c0-0.254,0.049-0.492,0.145-0.713c0.096-0.225,0.225-0.414,0.387-0.576
			c0.16-0.162,0.35-0.289,0.568-0.387c0.219-0.096,0.449-0.143,0.695-0.143c0.252,0,0.49,0.047,0.713,0.143
			c0.223,0.098,0.416,0.225,0.58,0.387c0.166,0.162,0.297,0.354,0.396,0.576C465.041,774.578,465.089,774.816,465.089,775.07
			 M464.666,790.306h-2.842v-11.799h2.842V790.306z"/>
	</g>
	<g>
		<defs>
			<rect id="SVGID_53_" y="303" width="595.281" height="841.89"/>
		</defs>
		<clipPath id="SVGID_54_">
			<use xlink:href="#SVGID_53_"  overflow="visible"/>
		</clipPath>
		<path clip-path="url(#SVGID_54_)" fill="#288340" d="M472.748,778.324c0.744,0,1.43,0.119,2.053,0.355
			c0.625,0.238,1.164,0.584,1.617,1.041c0.451,0.455,0.805,1.018,1.057,1.68c0.254,0.662,0.381,1.42,0.381,2.271
			c0,0.213-0.01,0.393-0.027,0.533c-0.021,0.143-0.055,0.254-0.104,0.334c-0.051,0.08-0.117,0.139-0.203,0.174
			c-0.084,0.033-0.189,0.051-0.32,0.051h-7.291c0.084,1.211,0.41,2.102,0.979,2.668s1.318,0.852,2.254,0.852
			c0.459,0,0.855-0.055,1.189-0.16c0.334-0.107,0.625-0.229,0.875-0.357c0.248-0.131,0.467-0.25,0.654-0.355
			c0.188-0.107,0.369-0.16,0.547-0.16c0.113,0,0.215,0.021,0.299,0.068c0.084,0.045,0.156,0.109,0.219,0.193l0.828,1.037
			c-0.314,0.367-0.668,0.676-1.059,0.924c-0.393,0.25-0.801,0.451-1.227,0.6c-0.424,0.148-0.857,0.256-1.299,0.314
			c-0.441,0.062-0.867,0.094-1.281,0.094c-0.82,0-1.584-0.137-2.289-0.408s-1.318-0.674-1.84-1.207s-0.932-1.191-1.23-1.979
			s-0.447-1.695-0.447-2.73c0-0.807,0.129-1.562,0.391-2.271c0.26-0.709,0.635-1.326,1.121-1.852s1.08-0.941,1.783-1.248
			C471.076,778.476,471.867,778.324,472.748,778.324 M472.806,780.359c-0.828,0-1.477,0.232-1.943,0.701s-0.768,1.131-0.896,1.988
			h5.336c0-0.367-0.049-0.713-0.148-1.039s-0.252-0.611-0.459-0.857c-0.207-0.244-0.469-0.438-0.783-0.58
			C473.595,780.429,473.228,780.359,472.806,780.359"/>
	</g>
	<g>
		<defs>
			<rect id="SVGID_55_" y="303" width="595.281" height="841.89"/>
		</defs>
		<clipPath id="SVGID_56_">
			<use xlink:href="#SVGID_55_"  overflow="visible"/>
		</clipPath>
		<path clip-path="url(#SVGID_56_)" fill="#288340" d="M484.041,790.49c-1.021,0-1.805-0.289-2.357-0.867
			c-0.551-0.578-0.828-1.379-0.828-2.398v-6.59h-1.195c-0.152,0-0.285-0.049-0.396-0.148c-0.109-0.1-0.166-0.248-0.166-0.447v-1.127
			l1.896-0.312l0.6-3.219c0.029-0.154,0.102-0.271,0.213-0.355c0.109-0.086,0.25-0.129,0.418-0.129h1.475v3.717h3.104v2.021h-3.104
			v6.396c0,0.367,0.092,0.654,0.273,0.861c0.186,0.207,0.432,0.311,0.736,0.311c0.176,0,0.324-0.021,0.443-0.062
			c0.117-0.043,0.223-0.086,0.311-0.133c0.088-0.045,0.166-0.09,0.236-0.133c0.066-0.041,0.137-0.062,0.207-0.062
			c0.084,0,0.152,0.021,0.207,0.062c0.053,0.043,0.109,0.105,0.172,0.191l0.852,1.379c-0.414,0.346-0.891,0.605-1.428,0.781
			S484.617,790.49,484.041,790.49"/>
	</g>
	<g>
		<defs>
			<rect id="SVGID_57_" y="303" width="595.281" height="841.89"/>
		</defs>
		<clipPath id="SVGID_58_">
			<use xlink:href="#SVGID_57_"  overflow="visible"/>
		</clipPath>
		<path clip-path="url(#SVGID_58_)" fill="#288340" d="M494.103,778.324c0.883,0,1.682,0.143,2.396,0.426
			c0.719,0.283,1.33,0.686,1.836,1.207s0.895,1.158,1.172,1.908c0.277,0.752,0.414,1.592,0.414,2.52
			c0,0.936-0.137,1.779-0.414,2.529c-0.275,0.752-0.666,1.393-1.172,1.922c-0.506,0.527-1.117,0.936-1.836,1.219
			c-0.717,0.283-1.516,0.426-2.396,0.426s-1.684-0.143-2.402-0.426c-0.721-0.283-1.336-0.689-1.848-1.219
			c-0.51-0.529-0.902-1.17-1.184-1.922c-0.281-0.75-0.422-1.594-0.422-2.529c0-0.928,0.141-1.768,0.422-2.52
			c0.279-0.75,0.674-1.387,1.184-1.908c0.512-0.521,1.125-0.924,1.848-1.207C492.419,778.464,493.22,778.324,494.103,778.324
			 M494.103,788.292c0.98,0,1.707-0.328,2.18-0.988s0.707-1.625,0.707-2.896c0-1.273-0.234-2.242-0.707-2.91
			c-0.473-0.666-1.197-1-2.18-1c-0.996,0-1.732,0.336-2.209,1.006c-0.475,0.672-0.713,1.639-0.713,2.904
			c0,1.264,0.238,2.229,0.713,2.893C492.371,787.964,493.105,788.292,494.103,788.292"/>
	</g>
	<g>
		<defs>
			<rect id="SVGID_59_" y="303" width="595.281" height="841.89"/>
		</defs>
		<clipPath id="SVGID_60_">
			<use xlink:href="#SVGID_59_"  overflow="visible"/>
		</clipPath>
		<rect x="502.326" y="773.216" clip-path="url(#SVGID_60_)" fill="#288340" width="2.84" height="17.09"/>
	</g>
	<g>
		<defs>
			<rect id="SVGID_61_" y="303" width="595.281" height="841.89"/>
		</defs>
		<clipPath id="SVGID_62_">
			<use xlink:href="#SVGID_61_"  overflow="visible"/>
		</clipPath>
		<path clip-path="url(#SVGID_62_)" fill="#288340" d="M513.412,778.324c0.881,0,1.68,0.143,2.396,0.426
			c0.719,0.283,1.328,0.686,1.834,1.207c0.508,0.521,0.896,1.158,1.174,1.908c0.275,0.752,0.414,1.592,0.414,2.52
			c0,0.936-0.139,1.779-0.414,2.529c-0.275,0.752-0.666,1.393-1.174,1.922c-0.506,0.527-1.115,0.936-1.834,1.219
			c-0.717,0.283-1.516,0.426-2.396,0.426s-1.684-0.143-2.404-0.426c-0.719-0.283-1.336-0.689-1.846-1.219s-0.904-1.17-1.186-1.922
			c-0.279-0.75-0.42-1.594-0.42-2.529c0-0.928,0.141-1.768,0.42-2.52c0.281-0.75,0.676-1.387,1.186-1.908s1.125-0.924,1.846-1.207
			C511.728,778.464,512.529,778.324,513.412,778.324 M513.412,788.292c0.979,0,1.707-0.328,2.18-0.988
			c0.471-0.66,0.707-1.625,0.707-2.896c0-1.273-0.236-2.242-0.707-2.91c-0.473-0.666-1.199-1-2.18-1
			c-0.996,0-1.732,0.336-2.209,1.006c-0.477,0.672-0.713,1.639-0.713,2.904c0,1.264,0.236,2.229,0.713,2.893
			C511.679,787.962,512.416,788.292,513.412,788.292"/>
	</g>
	<g>
		<defs>
			<rect id="SVGID_63_" y="303" width="595.281" height="841.89"/>
		</defs>
		<clipPath id="SVGID_64_">
			<use xlink:href="#SVGID_63_"  overflow="visible"/>
		</clipPath>
		<path clip-path="url(#SVGID_64_)" fill="#288340" d="M525.533,778.3c0.506,0,0.98,0.051,1.426,0.154s0.852,0.256,1.219,0.455
			h3.393v1.057c0,0.178-0.045,0.314-0.139,0.414c-0.092,0.102-0.248,0.17-0.471,0.207l-1.059,0.195
			c0.076,0.201,0.137,0.412,0.178,0.633c0.043,0.225,0.062,0.457,0.062,0.701c0,0.584-0.115,1.109-0.35,1.582
			s-0.557,0.873-0.967,1.201c-0.41,0.33-0.896,0.586-1.461,0.766c-0.562,0.18-1.174,0.27-1.834,0.27
			c-0.443,0-0.877-0.041-1.299-0.125c-0.369,0.225-0.555,0.475-0.555,0.752c0,0.24,0.111,0.416,0.33,0.527
			c0.217,0.111,0.506,0.191,0.861,0.236c0.355,0.047,0.762,0.07,1.213,0.07c0.453,0,0.916,0.02,1.393,0.059
			c0.477,0.037,0.939,0.104,1.393,0.201c0.451,0.096,0.855,0.248,1.213,0.455c0.357,0.209,0.645,0.49,0.863,0.85
			c0.217,0.357,0.326,0.816,0.326,1.377c0,0.523-0.129,1.031-0.385,1.523c-0.258,0.492-0.629,0.932-1.117,1.314
			c-0.484,0.385-1.082,0.693-1.787,0.93c-0.705,0.234-1.512,0.352-2.414,0.352c-0.896,0-1.676-0.086-2.334-0.258
			c-0.66-0.172-1.207-0.402-1.641-0.689c-0.434-0.289-0.758-0.619-0.971-0.994c-0.215-0.377-0.322-0.768-0.322-1.174
			c0-0.553,0.168-1.016,0.504-1.393c0.338-0.375,0.807-0.674,1.404-0.896c-0.291-0.16-0.525-0.375-0.701-0.645
			c-0.176-0.268-0.266-0.617-0.266-1.047c0-0.176,0.031-0.357,0.094-0.545c0.061-0.189,0.154-0.375,0.281-0.559
			c0.127-0.186,0.285-0.357,0.477-0.523c0.193-0.164,0.418-0.312,0.68-0.441c-0.6-0.322-1.068-0.752-1.408-1.289
			c-0.342-0.537-0.514-1.164-0.514-1.887c0-0.582,0.117-1.109,0.352-1.58c0.234-0.473,0.559-0.875,0.979-1.207
			c0.418-0.334,0.912-0.59,1.482-0.766C524.234,778.388,524.857,778.3,525.533,778.3 M528.648,790.8
			c0-0.232-0.068-0.426-0.207-0.574s-0.326-0.264-0.562-0.346c-0.238-0.084-0.516-0.145-0.834-0.184s-0.656-0.059-1.012-0.059
			h-1.105c-0.379,0-0.744-0.043-1.098-0.127c-0.322,0.176-0.58,0.385-0.777,0.627c-0.193,0.242-0.291,0.52-0.291,0.834
			c0,0.207,0.053,0.4,0.154,0.58c0.105,0.182,0.27,0.336,0.494,0.467s0.52,0.23,0.881,0.305c0.359,0.072,0.801,0.109,1.322,0.109
			c0.527,0,0.984-0.043,1.369-0.125c0.383-0.082,0.697-0.193,0.947-0.34c0.248-0.145,0.432-0.316,0.547-0.516
			S528.648,791.037,528.648,790.8 M525.533,784.121c0.352,0,0.658-0.049,0.92-0.146c0.26-0.096,0.477-0.227,0.648-0.395
			c0.172-0.17,0.303-0.373,0.393-0.609c0.088-0.236,0.131-0.498,0.131-0.783c0-0.58-0.174-1.043-0.523-1.385
			c-0.348-0.342-0.871-0.512-1.568-0.512s-1.221,0.17-1.57,0.512c-0.348,0.342-0.521,0.805-0.521,1.385
			c0,0.277,0.045,0.533,0.133,0.771s0.219,0.443,0.391,0.615c0.172,0.174,0.393,0.307,0.656,0.402
			C524.882,784.072,525.187,784.121,525.533,784.121"/>
	</g>
	<g>
		<defs>
			<rect id="SVGID_65_" y="303" width="595.281" height="841.89"/>
		</defs>
		<clipPath id="SVGID_66_">
			<use xlink:href="#SVGID_65_"  overflow="visible"/>
		</clipPath>
		<path clip-path="url(#SVGID_66_)" fill="#288340" d="M536.802,775.07c0,0.244-0.051,0.475-0.148,0.688
			c-0.102,0.215-0.232,0.404-0.396,0.564c-0.166,0.16-0.359,0.289-0.582,0.385s-0.459,0.145-0.713,0.145
			c-0.244,0-0.477-0.049-0.695-0.145s-0.406-0.225-0.568-0.385c-0.16-0.16-0.289-0.35-0.385-0.564
			c-0.098-0.213-0.145-0.443-0.145-0.688c0-0.254,0.047-0.492,0.145-0.713c0.096-0.225,0.225-0.414,0.385-0.576
			c0.162-0.162,0.352-0.289,0.568-0.387c0.219-0.096,0.451-0.143,0.695-0.143c0.254,0,0.49,0.047,0.713,0.143
			c0.223,0.098,0.416,0.225,0.582,0.387c0.164,0.162,0.297,0.354,0.396,0.576C536.751,774.578,536.802,774.816,536.802,775.07
			 M536.376,790.306h-2.84v-11.799h2.84V790.306z"/>
	</g>
	<g>
		<defs>
			<rect id="SVGID_67_" y="303" width="595.281" height="841.89"/>
		</defs>
		<clipPath id="SVGID_68_">
			<use xlink:href="#SVGID_67_"  overflow="visible"/>
		</clipPath>
		<path clip-path="url(#SVGID_68_)" fill="#288340" d="M548.832,790.306h-1.277c-0.268,0-0.479-0.041-0.631-0.121
			c-0.154-0.08-0.27-0.242-0.346-0.488l-0.254-0.84c-0.299,0.27-0.592,0.506-0.879,0.707c-0.287,0.203-0.584,0.373-0.893,0.512
			c-0.307,0.139-0.633,0.242-0.977,0.311c-0.348,0.07-0.73,0.105-1.15,0.105c-0.498,0-0.959-0.068-1.381-0.201
			c-0.422-0.135-0.783-0.338-1.086-0.605c-0.303-0.27-0.539-0.604-0.707-1.004c-0.17-0.4-0.252-0.865-0.252-1.396
			c0-0.445,0.115-0.887,0.35-1.32c0.232-0.436,0.623-0.828,1.166-1.178c0.545-0.352,1.271-0.641,2.174-0.871
			c0.904-0.23,2.027-0.346,3.369-0.346v-0.695c0-0.795-0.166-1.385-0.5-1.768c-0.332-0.383-0.816-0.574-1.455-0.574
			c-0.459,0-0.842,0.055-1.148,0.162c-0.305,0.105-0.572,0.229-0.799,0.361c-0.227,0.135-0.436,0.254-0.627,0.361
			s-0.404,0.162-0.633,0.162c-0.191,0-0.355-0.051-0.494-0.15s-0.25-0.223-0.334-0.367l-0.518-0.908
			c1.357-1.242,2.994-1.863,4.91-1.863c0.689,0,1.305,0.113,1.846,0.34s0.998,0.541,1.375,0.943c0.375,0.4,0.66,0.883,0.855,1.441
			c0.195,0.561,0.293,1.174,0.293,1.842v7.449H548.832z M543.312,788.535c0.291,0,0.561-0.025,0.805-0.078
			c0.246-0.053,0.479-0.133,0.695-0.238c0.219-0.104,0.43-0.234,0.633-0.391c0.203-0.154,0.408-0.338,0.615-0.549v-1.977
			c-0.828,0-1.52,0.055-2.074,0.158c-0.559,0.104-1.004,0.236-1.342,0.398s-0.576,0.352-0.719,0.566
			c-0.143,0.217-0.213,0.451-0.213,0.707c0,0.502,0.148,0.861,0.443,1.076C542.451,788.427,542.835,788.535,543.312,788.535"/>
	</g>
</g>
</svg>
